<svg xmlns="http://www.w3.org/2000/svg" width="26.032" height="24.629" viewBox="0 0 26.032 24.629">
  <g id="chat" transform="translate(-473 -697)">
    <path id="União_3" data-name="União 3" d="M25.032,18.628a1,1,0,0,1-.275-.039l-7.063-2.024A12,12,0,0,1,12,18,12,12,0,0,1,0,6,12,12,0,0,1,20.485-2.485a12,12,0,0,1,1.84,14.6l3.521,4.927a1,1,0,0,1-.814,1.581ZM12-4A10,10,0,1,0,17.06,14.627a1,1,0,0,1,.782-.1l4.709,1.349-2.246-3.143a1,1,0,0,1-.015-1.141A10,10,0,0,0,12-4Z" transform="translate(473 703)" fill="#919191"/>
    <circle id="Elipse_6" data-name="Elipse 6" cx="2" cy="2" r="2" transform="translate(478 707)" fill="#919191"/>
    <circle id="Elipse_7" data-name="Elipse 7" cx="2" cy="2" r="2" transform="translate(483 707)" fill="#919191"/>
    <circle id="Elipse_8" data-name="Elipse 8" cx="2" cy="2" r="2" transform="translate(488 707)" fill="#919191"/>
  </g>
</svg>
