<svg xmlns="http://www.w3.org/2000/svg" width="124.773" height="56" viewBox="0 0 124.773 56">
  <g id="Grupo_5" data-name="Grupo 5" transform="translate(-714 -477)">
    <path id="União_2" data-name="União 2" d="M19.186,34.452A2.116,2.116,0,0,1,19,31.465,21.173,21.173,0,0,0,19,3.516a2.116,2.116,0,1,1,3.175-2.8,25.412,25.412,0,0,1,0,33.546,2.116,2.116,0,0,1-2.987.189Zm-6.68-3.9a2.115,2.115,0,0,1-.272-2.98,15.645,15.645,0,0,0,0-20.027,2.116,2.116,0,1,1,3.252-2.709,19.876,19.876,0,0,1,0,25.444,2.116,2.116,0,0,1-2.98.272ZM6.651,26.527a2.116,2.116,0,0,1-.5-2.951,10.5,10.5,0,0,0,0-12.157A2.116,2.116,0,1,1,9.6,8.969a14.742,14.742,0,0,1,0,17.059,2.116,2.116,0,0,1-2.951.5ZM.891,22.842a2.116,2.116,0,0,1-.5-2.951,4.134,4.134,0,0,0,0-4.785,2.116,2.116,0,1,1,3.45-2.451,8.371,8.371,0,0,1,0,9.687,2.116,2.116,0,0,1-2.951.5Z" transform="translate(810.278 488)" fill="#fff"/>
    <path id="Subtração_1" data-name="Subtração 1" d="M67,56H37.515a6.32,6.32,0,0,0,4.054-1.643,15.172,15.172,0,0,0,3.474-4.547,43.12,43.12,0,0,0,4.179-15.515,7.048,7.048,0,0,0,5.965,3.274H75V48A8.009,8.009,0,0,1,67,56ZM37.355,56H8a8.009,8.009,0,0,1-8-8V37.569H19.811a7.048,7.048,0,0,0,5.966-3.275,43.116,43.116,0,0,0,4.179,15.515,15.174,15.174,0,0,0,3.475,4.548A6.376,6.376,0,0,0,37.355,56Zm.145-1.417c-2.575,0-5.2-2.677-7.205-7.344a39.991,39.991,0,0,1-2.486-8.594A59.739,59.739,0,0,1,26.887,28a59.759,59.759,0,0,1,.923-10.645,40.006,40.006,0,0,1,2.486-8.593c2-4.667,4.63-7.344,7.205-7.344s5.2,2.677,7.205,7.344a40.056,40.056,0,0,1,2.485,8.593,59.623,59.623,0,0,1,.923,10.369v.553a59.6,59.6,0,0,1-.923,10.368,40.042,40.042,0,0,1-2.485,8.594C42.7,51.906,40.074,54.582,37.5,54.582Zm0-51.038a2.127,2.127,0,1,0,2.122,2.127A2.127,2.127,0,0,0,37.5,3.544ZM75,36.151H55.188a5.672,5.672,0,0,1-5.66-5.671V26.228a5.672,5.672,0,0,1,5.66-5.671H75V36.15Zm-55.189,0H0V20.557H19.811a5.672,5.672,0,0,1,5.661,5.671V30.48A5.672,5.672,0,0,1,19.811,36.151ZM49.28,22.327v0a44.016,44.016,0,0,0-4.133-15.94A15.516,15.516,0,0,0,41.633,1.7,6.413,6.413,0,0,0,37.646,0L67,0a8.009,8.009,0,0,1,8,8V19.139H55.188a7.058,7.058,0,0,0-5.907,3.185Zm-23.561,0,0,0a7.06,7.06,0,0,0-5.906-3.184H0V8A8.009,8.009,0,0,1,8,0H37.355a6.427,6.427,0,0,0-3.987,1.7,15.518,15.518,0,0,0-3.513,4.688,44.063,44.063,0,0,0-4.136,15.939Z" transform="translate(714 477)" fill="#bdaaa4"/>
  </g>
</svg>
