<svg xmlns="http://www.w3.org/2000/svg" width="117" height="90.176" viewBox="0 0 117 90.176">
  <g id="Grupo_8" data-name="Grupo 8" transform="translate(-1360 -815)">
    <g id="Grupo_6" data-name="Grupo 6">
      <ellipse id="Elipse_1" data-name="Elipse 1" cx="36.5" cy="35.5" rx="36.5" ry="35.5" transform="translate(1360 815)" fill="#0069b2"/>
      <ellipse id="Elipse_2" data-name="Elipse 2" cx="36.5" cy="35.5" rx="36.5" ry="35.5" transform="translate(1404 815)" fill="#00a1df"/>
      <path id="Interseção_1" data-name="Interseção 1" d="M0,28.963A36.259,36.259,0,0,1,14.4,0,36.258,36.258,0,0,1,28.8,28.963,36.259,36.259,0,0,1,14.4,57.926,36.259,36.259,0,0,1,0,28.963Z" transform="translate(1404.08 821.546)" fill="#2778bc"/>
    </g>
    <path id="Caminho_6" data-name="Caminho 6" d="M5-1.529A1.931,1.931,0,0,0,6.328-2a1.591,1.591,0,0,0,.563-1.151H8.9A3.137,3.137,0,0,1,8.35-1.49,3.632,3.632,0,0,1,6.943-.272,4.191,4.191,0,0,1,5.027.176,4.055,4.055,0,0,1,1.863-1.116,5.124,5.124,0,0,1,.694-4.685V-4.9A5.039,5.039,0,0,1,1.854-8.38,4.018,4.018,0,0,1,5.019-9.686,3.907,3.907,0,0,1,7.783-8.7,3.542,3.542,0,0,1,8.9-6.1H6.891a1.956,1.956,0,0,0-.558-1.345A1.8,1.8,0,0,0,5-7.972a1.879,1.879,0,0,0-1.6.751A3.834,3.834,0,0,0,2.83-4.939V-4.6A3.9,3.9,0,0,0,3.388-2.29,1.878,1.878,0,0,0,5-1.529ZM12.788,0H10.652V-9.51h2.136ZM10.521-11.979a1.133,1.133,0,0,1,.312-.817,1.179,1.179,0,0,1,.892-.325,1.193,1.193,0,0,1,.9.325,1.125,1.125,0,0,1,.316.817,1.1,1.1,0,0,1-.316.8,1.2,1.2,0,0,1-.9.321,1.188,1.188,0,0,1-.892-.321A1.107,1.107,0,0,1,10.521-11.979Zm9.571,4.421a5.285,5.285,0,0,0-.87-.07A1.959,1.959,0,0,0,17.244-6.5V0H15.108V-9.51h2.039L17.2-8.446a2.406,2.406,0,0,1,2.145-1.239,2,2,0,0,1,.756.123Zm6.328,0a5.285,5.285,0,0,0-.87-.07A1.959,1.959,0,0,0,23.572-6.5V0H21.437V-9.51h2.039l.053,1.063a2.406,2.406,0,0,1,2.145-1.239,2,2,0,0,1,.756.123ZM33.53-.932A3.312,3.312,0,0,1,30.858.176a2.952,2.952,0,0,1-2.342-.905,3.851,3.851,0,0,1-.8-2.619V-9.51h2.136v6.135q0,1.811,1.5,1.811a2.111,2.111,0,0,0,2.1-1.116V-9.51H35.6V0H33.583ZM43.1-2.584a.968.968,0,0,0-.47-.87,5,5,0,0,0-1.56-.527,8.02,8.02,0,0,1-1.819-.58,2.428,2.428,0,0,1-1.6-2.241,2.531,2.531,0,0,1,1.037-2.057,4.1,4.1,0,0,1,2.637-.826,4.266,4.266,0,0,1,2.755.844,2.677,2.677,0,0,1,1.05,2.188H43a1.316,1.316,0,0,0-.457-1.024,1.752,1.752,0,0,0-1.213-.409,1.893,1.893,0,0,0-1.147.325,1.025,1.025,0,0,0-.444.87.866.866,0,0,0,.413.765,5.68,5.68,0,0,0,1.67.549,7.9,7.9,0,0,1,1.973.659A2.794,2.794,0,0,1,44.855-4,2.342,2.342,0,0,1,45.2-2.7,2.478,2.478,0,0,1,44.139-.62a4.535,4.535,0,0,1-2.786.8A4.917,4.917,0,0,1,39.27-.246a3.428,3.428,0,0,1-1.424-1.16A2.746,2.746,0,0,1,37.336-3H39.41a1.5,1.5,0,0,0,.571,1.165,2.22,2.22,0,0,0,1.4.409,2.16,2.16,0,0,0,1.283-.321A.993.993,0,0,0,43.1-2.584Z" transform="translate(1396 905)" fill="#919191"/>
  </g>
</svg>
