<svg xmlns="http://www.w3.org/2000/svg" width="22.722" height="22.722" viewBox="0 0 22.722 22.722">
  <g id="União_3" data-name="União 3" transform="translate(0.4 6.4)" fill="#919191">
    <path d="M 10.96110057830811 16.12190055847168 C 7.979110717773438 16.12190055847168 5.176110744476318 14.96115112304688 3.068430662155151 12.85347080230713 C 0.9607505798339844 10.7457914352417 -0.1999994218349457 7.942790985107422 -0.1999994218349457 4.960801124572754 C -0.1999994218349457 1.979151129722595 0.9607505798339844 -0.8237288594245911 3.068420648574829 -2.931528806686401 C 5.176200389862061 -5.0394287109375 7.979210376739502 -6.20029878616333 10.96110057830811 -6.20029878616333 C 13.94299030303955 -6.20029878616333 16.74600028991699 -5.0394287109375 18.85378074645996 -2.931528806686401 C 20.96145057678223 -0.8237288594245911 22.12220001220703 1.979151129722595 22.12220001220703 4.960801124572754 C 22.12220001220703 7.942790985107422 20.96145057678223 10.7457914352417 18.8537712097168 12.85347080230713 C 16.74608993530273 14.96115112304688 13.94309043884277 16.12190055847168 10.96110057830811 16.12190055847168 Z M 10.96110057830811 -4.324298858642578 C 8.479450225830078 -4.324298858642578 6.147180557250977 -3.358738899230957 4.393920421600342 -1.605478882789612 C 2.640650510787964 0.1469111293554306 1.675100564956665 2.478851079940796 1.675100564956665 4.960801124572754 C 1.675100564956665 7.442451000213623 2.640660524368286 9.774721145629883 4.393920421600342 11.52798080444336 C 6.147180557250977 13.28124141693115 8.479450225830078 14.24680137634277 10.96110057830811 14.24680137634277 C 13.44275093078613 14.24680137634277 15.77502059936523 13.28124141693115 17.52828025817871 11.52798080444336 C 19.28094100952148 9.774431228637695 20.24620056152344 7.442151069641113 20.24620056152344 4.960801124572754 C 20.24620056152344 2.479151010513306 19.28096008300781 0.1472011208534241 17.52828025817871 -1.605478882789612 C 15.77502059936523 -3.358738899230957 13.44275093078613 -4.324298858642578 10.96110057830811 -4.324298858642578 Z M 10.73970031738281 10.21970081329346 C 9.995200157165527 10.21970081329346 9.41200065612793 9.655091285705566 9.41200065612793 8.934301376342773 C 9.41200065612793 8.225531578063965 10.00760078430176 7.648900985717773 10.73970031738281 7.648900985717773 C 11.48723030090332 7.648900985717773 12.0728006362915 8.21351146697998 12.0728006362915 8.934301376342773 C 12.0728006362915 9.655091285705566 11.48723030090332 10.21970081329346 10.73970031738281 10.21970081329346 Z M 11.8253002166748 7.126400947570801 L 11.62530040740967 7.126400947570801 L 9.796500205993652 7.126400947570801 L 9.603530883789062 7.126400947570801 L 9.596631050109863 6.93355131149292 L 9.580595016479492 6.485456466674805 C 9.487512588500977 5.336459159851074 9.889180183410645 4.587496757507324 10.92300033569336 3.981831073760986 C 11.83775043487549 3.43575119972229 12.08860015869141 3.145331144332886 12.08860015869141 2.631601095199585 C 12.08860015869141 2.108371019363403 11.55381011962891 1.698501110076904 10.87110042572021 1.698501110076904 C 10.17108058929443 1.698501110076904 9.6951904296875 2.133311033248901 9.658710479736328 2.806231021881104 L 9.64845085144043 2.99540114402771 L 9.459000587463379 2.99540114402771 L 7.588800430297852 2.99540114402771 L 7.384400367736816 2.99540114402771 L 7.388850688934326 2.791051149368286 C 7.429640769958496 0.9144611358642578 8.846320152282715 -0.2980988621711731 10.9980001449585 -0.2980988621711731 C 13.07959079742432 -0.2980988621711731 14.5334005355835 0.8829511404037476 14.5334005355835 2.57400107383728 C 14.5334005355835 3.652411222457886 14.03170013427734 4.450691223144531 12.95453071594238 5.086251258850098 C 12.08884048461914 5.588341236114502 11.8253002166748 5.920960903167725 11.8253002166748 6.510601043701172 L 11.8253002166748 6.926401138305664 L 11.8253002166748 7.126400947570801 Z" stroke="none"/>
    <path d="M 10.96110057830811 -6.000298500061035 C 4.905900955200195 -6.000298500061035 0 -1.093499183654785 0 4.960801124572754 C 0 11.01600074768066 4.905900955200195 15.92190170288086 10.96110057830811 15.92190170288086 C 17.01630020141602 15.92190170288086 21.92220115661621 11.01600074768066 21.92220115661621 4.960801124572754 C 21.92220115661621 -1.093499183654785 17.01630020141602 -6.000298500061035 10.96110057830811 -6.000298500061035 M 10.96110057830811 14.44680118560791 C 8.426700592041016 14.44680118560791 6.044400215148926 13.46130084991455 4.252500534057617 11.66940116882324 C 2.460599899291992 9.877501487731934 1.475101470947266 7.496101379394531 1.475101470947266 4.960801124572754 C 1.475101470947266 2.426401138305664 2.460599899291992 0.04410076141357422 4.252500534057617 -1.746898651123047 C 6.044400215148926 -3.538799285888672 8.426700592041016 -4.524298667907715 10.96110057830811 -4.524298667907715 C 13.4955005645752 -4.524298667907715 15.87779998779297 -3.538799285888672 17.66970062255859 -1.746898651123047 C 19.46070098876953 0.04410076141357422 20.44620132446289 2.426401138305664 20.44620132446289 4.960801124572754 C 20.44620132446289 7.496101379394531 19.46070098876953 9.877501487731934 17.66970062255859 11.66940116882324 C 15.87779998779297 13.46130084991455 13.4955005645752 14.44680118560791 10.96110057830811 14.44680118560791 M 10.9980001449585 -0.0980987548828125 C 8.879400253295898 -0.0980987548828125 7.625700950622559 1.098001480102539 7.588800430297852 2.795401096343994 L 9.459000587463379 2.795401096343994 C 9.501300811767578 2.015100955963135 10.07550048828125 1.498500823974609 10.87110042572021 1.498500823974609 C 11.65680027008057 1.498500823974609 12.28860092163086 1.978200912475586 12.28860092163086 2.631601333618164 C 12.28860092163086 3.285001277923584 11.91510105133057 3.622500896453857 11.0241003036499 4.154401302337646 C 10.07010078430176 4.713301181793213 9.691200256347656 5.388300895690918 9.780300140380859 6.473701477050781 L 9.796500205993652 6.926401138305664 L 11.62530040740967 6.926401138305664 L 11.62530040740967 6.510601043701172 C 11.62530040740967 5.835601329803467 11.93580055236816 5.445900917053223 12.85290050506592 4.914000988006592 C 13.82760047912598 4.338901042938232 14.33340072631836 3.617101192474365 14.33340072631836 2.574001312255859 C 14.33340072631836 0.9981012344360352 12.97440052032471 -0.0980987548828125 10.9980001449585 -0.0980987548828125 M 10.73970031738281 7.84890079498291 C 10.11780071258545 7.84890079498291 9.612000465393066 8.328600883483887 9.612000465393066 8.934301376342773 C 9.612000465393066 9.545401573181152 10.11240100860596 10.01970100402832 10.73970031738281 10.01970100402832 C 11.36700057983398 10.01970100402832 11.87280082702637 9.545401573181152 11.87280082702637 8.934301376342773 C 11.87280082702637 8.323201179504395 11.36700057983398 7.84890079498291 10.73970031738281 7.84890079498291 M 10.96110057830811 -6.400299072265625 C 13.99641036987305 -6.400299072265625 16.84965133666992 -5.218619346618652 18.99520111083984 -3.072948455810547 C 21.14064979553223 -0.9273786544799805 22.32220077514648 1.925731182098389 22.32220077514648 4.960801124572754 C 22.32220077514648 7.996211051940918 21.14064979553223 10.84944152832031 18.99518966674805 12.99489116668701 C 16.84974098205566 15.14035129547119 13.99651050567627 16.32190132141113 10.96110057830811 16.32190132141113 C 7.925690650939941 16.32190132141113 5.072460174560547 15.14035129547119 2.927011489868164 12.99489116668701 C 0.7815513610839844 10.84944152832031 -0.3999996185302734 7.996211051940918 -0.3999996185302734 4.960801124572754 C -0.3999996185302734 1.925731182098389 0.7815513610839844 -0.9273786544799805 2.927000045776367 -3.072948455810547 C 5.072549819946289 -5.218619346618652 7.925790786743164 -6.400299072265625 10.96110057830811 -6.400299072265625 Z M 10.96110057830811 14.04680061340332 C 13.38933086395264 14.04680061340332 15.67137050628662 13.10204124450684 17.38685989379883 11.38656139373779 C 19.10173988342285 9.670821189880371 20.04619979858398 7.388751029968262 20.04619979858398 4.960801124572754 C 20.04619979858398 2.532571315765381 19.10176086425781 0.2508506774902344 17.38685989379883 -1.464058876037598 C 15.67137050628662 -3.179538726806641 13.38933086395264 -4.124299049377441 10.96110057830811 -4.124299049377441 C 8.532870292663574 -4.124299049377441 6.25083065032959 -3.179538726806641 4.535341262817383 -1.464058876037598 C 2.819829940795898 0.2505912780761719 1.875101089477539 2.532290935516357 1.875101089477539 4.960801124572754 C 1.875101089477539 7.389031410217285 2.819860458374023 9.67107105255127 4.535341262817383 11.38656139373779 C 6.25083065032959 13.10204124450684 8.532870292663574 14.04680061340332 10.96110057830811 14.04680061340332 Z M 10.9980001449585 -0.4980993270874023 C 13.19735050201416 -0.4980993270874023 14.73340034484863 0.7651910781860352 14.73340034484863 2.574001312255859 C 14.73340034484863 3.71449089050293 14.18477058410645 4.592591285705566 13.05617046356201 5.258501052856445 C 12.17376041412354 5.770291328430176 12.02530097961426 6.058220863342285 12.02530097961426 6.510601043701172 L 12.02530097961426 7.326401233673096 L 9.410560607910156 7.326401233673096 L 9.380887031555176 6.497127056121826 C 9.283539772033691 5.279291152954102 9.728251457214355 4.449984550476074 10.82190036773682 3.809271335601807 C 11.72701072692871 3.268930912017822 11.88860034942627 3.03075122833252 11.88860034942627 2.631601333618164 C 11.88860034942627 2.220520973205566 11.44166088104248 1.898501396179199 10.87110042572021 1.898501396179199 C 10.28617095947266 1.898501396179199 9.888660430908203 2.259051322937012 9.858410835266113 2.817050933837891 L 9.837900161743164 3.195401191711426 L 7.180010795593262 3.195401191711426 L 7.18889045715332 2.7867112159729 C 7.209850311279297 1.822650909423828 7.576430320739746 1.001280784606934 8.249011039733887 0.4114007949829102 C 8.927420616149902 -0.183598518371582 9.878010749816895 -0.4980993270874023 10.9980001449585 -0.4980993270874023 Z M 10.73970031738281 7.448901176452637 C 11.59938049316406 7.448901176452637 12.27280044555664 8.101370811462402 12.27280044555664 8.934301376342773 C 12.27280044555664 9.767230987548828 11.59938049316406 10.41970157623291 10.73970031738281 10.41970157623291 C 9.883050918579102 10.41970157623291 9.212000846862793 9.767230987548828 9.212000846862793 8.934301376342773 C 9.212000846862793 8.115251541137695 9.897320747375488 7.448901176452637 10.73970031738281 7.448901176452637 Z" stroke="none" fill="#919191"/>
  </g>
</svg>
